<svg width="19" height="17" viewBox="0 0 19 17" fill="none" xmlns="http://www.w3.org/2000/svg">
<path d="M3.38721 6.9804C3.1596 6.74833 2.97904 6.47254 2.85606 6.16893C2.73309 5.86532 2.67007 5.53984 2.67059 5.21124C2.67055 5.03494 2.68849 4.85911 2.72403 4.68659L4.17763 6.17242L11.8321 13.9959L13.6984 12.0863L6.04608 4.26483L4.59238 2.779C4.76117 2.74268 4.9332 2.72434 5.10569 2.72439C5.42718 2.72386 5.74562 2.78836 6.04267 2.91406C6.33971 3.03975 6.60954 3.2242 6.83659 3.45685V3.45685L14.4911 11.2804L15.2959 10.4577L16.3821 9.34757L9.14646 1.95217L8.73582 1.53245C7.77632 0.551471 6.47484 0.000196729 5.11772 5.26512e-08C3.76059 -0.000196624 2.45898 0.550622 1.49921 1.53132C0.539447 2.51202 0.000192682 3.84227 5.16228e-08 5.22938C-0.000192578 6.6165 0.538717 7.94688 1.49821 8.92785L6.76882 14.3149L9.14235 16.7535L11.0355 14.8103L3.38721 6.9804Z" fill="white"/>
<path d="M17.157 8.50757C17.9334 7.50196 18.3217 6.24008 18.2483 4.96127C18.1748 3.68245 17.6446 2.47571 16.7584 1.5699C15.8721 0.664086 14.6915 0.122177 13.4403 0.0470842C12.1892 -0.0280082 10.9546 0.368902 9.9707 1.16248L17.157 8.50757Z" fill="white"/>
</svg>
