<svg width="110" height="30" viewBox="0 0 110 30" fill="none" xmlns="http://www.w3.org/2000/svg">
<g clip-path="url(#clip0_192_13325)">
<path d="M4.83232 9.99202C4.50668 9.66001 4.24835 9.26545 4.07242 8.83108C3.89648 8.39672 3.80633 7.93106 3.80707 7.46095C3.807 7.20872 3.83268 6.95716 3.88352 6.71035L5.96313 8.83607L16.9142 20.029L19.5843 17.2969L8.63627 6.10693L6.55651 3.98121C6.79799 3.92924 7.04411 3.90301 7.29088 3.90307C7.75084 3.90231 8.20642 3.9946 8.6314 4.17443C9.05637 4.35426 9.4424 4.61814 9.76724 4.95098V4.95098L20.7183 16.1439L21.8697 14.967L23.4237 13.3787L13.0719 2.79828L12.4844 2.1978C11.1117 0.794344 9.24969 0.00565255 7.3081 0.00537117C5.3665 0.00508979 3.50432 0.79313 2.13121 2.19619C0.758099 3.59924 -0.0133962 5.50239 -0.0136718 7.48689C-0.0139474 9.4714 0.757054 11.3747 2.12977 12.7782L9.67028 20.4853L13.066 23.9742L15.7744 21.194L4.83232 9.99202Z" fill="white"/>
<path d="M24.5341 12.1776C25.6449 10.7389 26.2005 8.93355 26.0954 7.104C25.9903 5.27444 25.2317 3.54799 23.9638 2.25207C22.6959 0.956147 21.0068 0.180853 19.2168 0.0734205C17.4268 -0.0340121 15.6605 0.533836 14.2529 1.66918L24.5341 12.1776Z" fill="white"/>
<path d="M84.2441 17.9393C84.2183 17.8352 84.1809 17.7345 84.1325 17.6391C84.0858 17.538 84.0254 17.4441 83.9532 17.36C83.8966 17.2848 83.8187 17.2291 83.73 17.2008C83.6339 17.1739 83.5356 17.1559 83.4363 17.1468C83.3773 17.1443 83.3185 17.1558 83.2645 17.1802C83.2105 17.2047 83.1629 17.2415 83.125 17.2878C82.8666 17.5881 82.7664 17.6482 82.5226 17.9124C82.1026 18.2787 80.9804 19.0923 80.8101 19.1944C80.8305 18.4253 80.8974 17.6583 81.01 16.8976C81.0805 16.2341 81.2097 15.6786 81.2802 15.0962C81.3507 14.5137 81.4389 13.9492 81.4859 13.5949C81.6034 12.6342 81.8147 12.0936 81.8264 11.7664V11.7365C81.8264 11.7365 81.8264 10.9017 80.578 10.4514C79.8657 10.1836 79.0943 10.1264 78.3516 10.2863C77.6647 10.4726 77.0355 10.8353 76.5243 11.3401C75.961 11.8562 75.4944 12.4727 75.1468 13.1595L73.9982 15.6966C73.5194 17.1258 71.6481 18.807 71.5306 18.9271L71.5102 18.9452C71.287 19.1163 70.8726 19.4106 70.6846 19.5247C70.7845 18.4498 70.9079 17.534 70.9784 16.8645C71.0489 16.1949 71.2016 15.7506 71.2721 15.036C71.3309 14.4746 71.4015 14.0362 71.4397 13.6549C71.5425 12.6701 71.7334 12.0607 71.6835 11.7425C71.6835 11.7425 71.6834 10.9077 70.4379 10.4574C69.7359 10.1948 68.9769 10.1346 68.2437 10.2832C67.5395 10.4634 66.8941 10.83 66.3725 11.3461C65.8083 11.8621 65.3404 12.4786 64.9918 13.1656C64.5731 14.0191 64.2196 14.9044 63.9344 15.8136C63.8116 16.1873 63.7307 16.5742 63.6935 16.9666C63.5113 17.1048 63.3292 17.2429 63.1324 17.372C62.8817 17.5341 62.6378 17.6782 62.4009 17.8043C62.1835 17.9218 61.9576 18.0222 61.7253 18.1046C61.5533 18.1721 61.3718 18.2106 61.1877 18.2186C61.0214 18.2062 60.8605 18.1536 60.7178 18.0654C60.6487 17.9867 60.602 17.8902 60.5827 17.7863C60.5509 17.6474 60.533 17.5055 60.5297 17.3629C60.5297 17.2008 60.5297 17.0236 60.5297 16.8315C60.538 16.6385 60.5626 16.4466 60.6031 16.258C60.6501 15.9938 60.706 15.6876 60.7706 15.3394C60.8352 14.9881 60.9146 14.5437 61.0116 14.0092C61.1085 13.4748 61.1936 13.0155 61.2612 12.6372C61.3254 12.2923 61.3657 11.9431 61.3816 11.5924C61.3934 11.2741 61.3994 11.0219 61.3994 10.8358C61.397 10.7369 61.3683 10.6406 61.3165 10.5571C61.2648 10.4735 61.192 10.4059 61.1057 10.3614C60.9333 10.2428 60.7233 10.1956 60.5182 10.2293C60.2473 10.224 59.9787 10.2825 59.7336 10.4004C59.6405 10.4333 59.5565 10.4884 59.4881 10.5609C59.4196 10.6334 59.3688 10.7214 59.34 10.8177L58.165 16.3751C58.1181 16.6366 58.036 16.8903 57.9212 17.1288C57.828 17.3312 57.702 17.5159 57.5483 17.6752C57.4251 17.8179 57.2777 17.9368 57.1134 18.0264C56.9528 18.1117 56.7834 18.1782 56.6082 18.2246C56.4001 18.2646 56.1877 18.2768 55.9766 18.2607C55.8439 18.2723 55.7119 18.2327 55.6065 18.1496C55.5266 18.0763 55.4618 17.9875 55.4157 17.8883C55.3671 17.7937 55.3314 17.6927 55.3099 17.5881C55.2861 17.4675 55.2742 17.3449 55.2746 17.2219C55.2746 17.2219 55.2921 17.1108 55.3274 16.9216C55.3626 16.7325 55.4067 16.4652 55.4625 16.1439C55.5183 15.8227 55.5949 15.3993 55.686 14.8679L55.9416 13.4237C56.0179 12.9884 56.0942 12.5591 56.1676 12.1327C56.241 11.7064 56.3116 11.262 56.3733 10.7966C56.3697 10.7193 56.3463 10.6442 56.3056 10.5789C56.2649 10.5136 56.2083 10.4604 56.1412 10.4244C55.9031 10.3039 55.6401 10.2432 55.3744 10.2473C55.1574 10.2182 54.9369 10.2428 54.7313 10.3193C54.55 10.4757 54.4011 10.6676 54.2935 10.8837C54.2935 10.8837 53.9674 11.2921 52.998 16.168C52.9969 16.1789 52.9969 16.19 52.998 16.2009C52.998 16.2009 52.998 16.2191 52.998 16.2281C52.9804 16.3241 52.9659 16.4112 52.9542 16.4922C52.9101 16.7324 52.8717 17.0027 52.7806 17.0718C52.4563 17.325 52.1079 17.5442 51.7407 17.7262C51.4259 17.8907 51.0807 17.9849 50.7275 18.0024C50.5241 18.0163 50.3208 17.9727 50.14 17.8763C49.9771 17.7871 49.8356 17.6621 49.7258 17.5101C49.6129 17.3481 49.5237 17.17 49.4613 16.9816C49.3938 16.7858 49.3407 16.5851 49.3027 16.3811C49.2645 16.1739 49.238 15.9698 49.2203 15.7657C49.2027 15.5615 49.197 15.3813 49.1911 15.2162C49.1769 14.6743 49.1926 14.132 49.2381 13.5919C49.2832 13.0194 49.3418 12.4339 49.4143 11.8354C49.4877 11.235 49.5699 10.6346 49.661 10.0041C49.752 9.37358 49.8374 8.77302 49.9108 8.18755C49.9843 7.60208 50.0431 7.04669 50.0901 6.52127C50.1344 6.04732 50.151 5.5711 50.14 5.09513C50.1292 4.75816 50.0799 4.42354 49.9931 4.09824C49.9091 3.77105 49.7718 3.46065 49.5875 3.17963C49.4077 2.90811 49.1734 2.67878 48.9002 2.50703C48.6009 2.33096 48.2582 2.24758 47.9134 2.26689C47.1379 2.29276 46.3895 2.56447 45.7719 3.04447C45.3404 3.37307 44.9513 3.75639 44.6145 4.18532C44.1636 4.74373 43.7617 5.34156 43.4131 5.97181C42.9439 6.84595 42.527 7.74832 42.1646 8.67397C41.7446 9.72781 41.5772 10.4964 41.0866 11.8715L41.1836 11.0278C41.1836 11.0278 41.257 10.5415 41.5126 8.89314C41.7149 7.7932 41.8346 6.67904 41.8709 5.56045C41.8638 5.13603 41.8087 4.71389 41.7065 4.30246C41.6198 3.95382 41.4626 3.6276 41.2452 3.34471C41.0294 3.07862 40.7516 2.87215 40.4374 2.74423C40.0517 2.5942 39.6391 2.52976 39.2272 2.55511C38.8916 2.56853 38.5635 2.65879 38.2667 2.81929C37.9049 3.01567 37.5828 3.28061 37.3178 3.59994C36.9636 4.0191 36.6671 4.48583 36.4365 4.98709C36.1293 5.62634 35.891 6.29779 35.7257 6.98967C35.7079 7.04909 35.698 7.11065 35.6963 7.17277C35.704 7.26876 35.7342 7.36141 35.7844 7.44296C35.8435 7.54447 35.9146 7.63829 35.9959 7.72223C36.0752 7.8078 36.1651 7.8824 36.2633 7.94434C36.3441 7.99998 36.4389 8.03025 36.5364 8.03142C36.6404 8.03843 36.7437 8.00991 36.8301 7.95035C36.915 7.88828 36.9795 7.80138 37.0151 7.70112C37.1724 7.32148 37.355 6.95335 37.5616 6.59927C37.7393 6.28705 37.9355 5.98624 38.1491 5.69854C38.3193 5.47377 38.5167 5.272 38.7366 5.09806C38.8712 4.97431 39.0389 4.89488 39.2183 4.86995C39.2612 4.86614 39.3043 4.87288 39.3442 4.8896C39.384 4.90631 39.4195 4.93245 39.4475 4.96598C39.5014 5.03563 39.5395 5.11665 39.5591 5.20318C39.5831 5.30141 39.5959 5.40216 39.5972 5.50342V5.75865C39.5796 6.49124 39.5531 7.17875 39.5238 7.82427C39.4944 8.46978 39.43 9.13927 39.3448 9.72774L39.1683 10.9799C39.0802 11.6434 38.9716 12.346 38.8364 13.0816C38.7268 13.694 38.6104 14.3385 38.487 15.0151C38.3637 15.6916 38.2322 16.4282 38.0932 17.2248C38.0464 17.4609 38.0122 17.6994 37.9905 17.9393C37.9693 18.199 37.9635 18.4597 37.973 18.72C37.9771 18.97 38.0215 19.2175 38.1049 19.4526C38.1746 19.6515 38.2825 19.8343 38.4222 19.99C38.5472 20.1294 38.7007 20.2391 38.8717 20.3112C39.0336 20.3798 39.2077 20.4135 39.3829 20.4103C39.6726 20.4047 39.9546 20.3152 40.1965 20.1521C40.4731 19.9474 40.6894 19.6691 40.8221 19.3475C41.0179 18.6409 41.2355 17.8903 41.4744 17.0957C41.7065 16.3 41.9474 15.4895 42.1971 14.6698C42.4467 13.8502 42.7051 13.0304 42.9724 12.2167C43.2398 11.4031 43.5158 10.6255 43.7949 9.88695C44.0739 9.14836 44.353 8.45777 44.638 7.81826C44.8863 7.24399 45.1719 6.68737 45.4928 6.15198C45.7282 5.74784 46.0124 5.37563 46.3388 5.04411C46.5508 4.80442 46.8435 4.65532 47.1584 4.62674C47.2326 4.62185 47.3069 4.63548 47.3749 4.66632C47.443 4.69717 47.5028 4.74428 47.5491 4.80383C47.65 4.93483 47.7249 5.08483 47.7694 5.24525C47.8181 5.42001 47.8515 5.59879 47.8692 5.77962C47.8898 5.96576 47.8987 6.11595 47.9016 6.22704C47.9121 6.65129 47.8827 7.07551 47.8136 7.49397C47.7401 7.93533 47.6517 8.39471 47.543 8.85708C47.4344 9.31945 47.3141 9.7999 47.179 10.2803C47.0439 10.7607 46.9204 11.2471 46.8147 11.7485C46.7089 12.2499 46.6178 12.7572 46.5473 13.2736C46.4795 13.797 46.4531 14.3252 46.4682 14.8529C46.4805 15.2717 46.5138 15.6896 46.568 16.1049C46.6227 16.5343 46.7091 16.9589 46.8265 17.3749C46.9378 17.7815 47.0885 18.1757 47.276 18.5518C47.4521 18.9062 47.6798 19.2312 47.9515 19.5156C48.2191 19.7904 48.5375 20.0079 48.8884 20.1552C49.282 20.3159 49.7051 20.3875 50.1283 20.3653C50.4997 20.352 50.8682 20.2947 51.2267 20.1942C51.6051 20.087 51.9736 19.9464 52.3282 19.7739C52.4369 19.7229 52.7337 19.5817 52.9863 19.4556C53.0539 19.6468 53.1533 19.8245 53.28 19.9811C53.4175 20.1514 53.5955 20.2827 53.797 20.3624C53.9735 20.4467 54.1619 20.5023 54.3552 20.5274C54.6638 20.56 54.9749 20.56 55.2835 20.5274C55.5718 20.4816 55.8545 20.4041 56.1266 20.2963C56.4259 20.1778 56.71 20.0226 56.9725 19.8339C57.2646 19.6258 57.5396 19.3939 57.795 19.1403C58.0685 18.864 58.3247 18.5702 58.5618 18.2607C58.6209 18.5478 58.6984 18.8306 58.7938 19.1073C58.8713 19.3403 58.9809 19.5608 59.1197 19.7619C59.2406 19.9372 59.3982 20.0829 59.581 20.1882C59.7789 20.2952 60.0007 20.3479 60.2244 20.3413C60.495 20.3381 60.7641 20.3019 61.0262 20.2332C61.3258 20.1593 61.6202 20.065 61.9075 19.951C62.2012 19.8309 62.5127 19.6928 62.8094 19.5396C63.106 19.3865 63.3968 19.2214 63.6553 19.0503C63.7787 18.9722 63.8785 18.8941 63.9901 18.816C64.2141 19.2811 64.5485 19.6817 64.9626 19.9811C65.3816 20.2956 65.8879 20.4649 66.4078 20.4644C67.1186 20.4644 67.85 20.1012 68.602 19.3746L68.4023 20.5996C67.9793 20.9759 67.6149 21.3271 67.3094 21.6533C67.0039 21.9796 66.6122 22.4139 66.1344 22.9563C65.8921 23.2339 65.6685 23.5278 65.4649 23.8361C65.2445 24.1604 65.0888 24.4126 64.9918 24.5927L64.4631 25.5384C64.0474 26.227 63.8428 27.0269 63.8756 27.8352C63.8999 28.1872 63.9937 28.5305 64.1516 28.8442C64.287 29.1167 64.4894 29.3484 64.7391 29.5166C64.9868 29.6787 65.2573 29.8012 65.5412 29.8799C65.8502 29.9605 66.168 29.9999 66.487 29.997C66.8877 30.0022 67.286 29.932 67.6619 29.7899C67.9952 29.6668 68.3052 29.486 68.5785 29.2554C68.8456 29.0217 69.078 28.7497 69.2687 28.4477C69.4642 28.1457 69.6306 27.825 69.7652 27.49C69.9015 27.1491 70.0145 26.7991 70.1032 26.4422C70.1913 26.1056 70.2588 25.7636 70.3057 25.4184C70.3439 25.1181 70.3822 24.8179 70.4204 24.4967C70.4381 24.3586 70.4616 24.1604 70.4939 23.8962C70.5761 23.0115 70.6505 22.411 70.717 22.0948C70.7327 21.9634 70.7735 21.8366 70.8375 21.7217C70.9016 21.6067 70.9874 21.506 71.09 21.4252C71.3837 21.2271 71.6775 20.8877 72.3266 20.4613L72.4678 20.3684C72.8799 20.0235 73.2722 19.6545 73.6428 19.2634C73.8161 19.0833 73.963 18.9121 74.0952 18.747C74.0952 18.747 74.0952 18.7681 74.0952 18.7801C74.3189 19.2615 74.661 19.6753 75.088 19.9811C75.5065 20.2965 76.0132 20.4659 76.5332 20.4644C77.2441 20.4644 77.9754 20.1012 78.7274 19.3746L78.5278 20.5996C78.1048 20.9759 77.7406 21.3271 77.4351 21.6533C77.1296 21.9796 76.7379 22.4139 76.2601 22.9563C76.0178 23.2339 75.7939 23.5278 75.5903 23.8361C75.371 24.1604 75.2123 24.4126 75.1144 24.5927C75.0165 24.7729 74.8403 25.0881 74.5857 25.5384C74.1711 26.2275 73.9666 27.027 73.9982 27.8352C74.0211 28.1874 74.1149 28.531 74.2742 28.8442C74.4095 29.1167 74.612 29.3484 74.8617 29.5166C75.1088 29.6798 75.3795 29.8023 75.6637 29.8799C75.9727 29.9607 76.2906 30.0001 76.6095 29.997C77.0103 30.0022 77.4086 29.932 77.7845 29.7899C78.1177 29.6668 78.4278 29.486 78.701 29.2554C78.9681 29.0217 79.2008 28.7497 79.3915 28.4477C79.5871 28.1457 79.7532 27.825 79.8878 27.49C80.024 27.1491 80.137 26.7991 80.2257 26.4422C80.3138 26.1056 80.3813 25.7636 80.4282 25.4184C80.4664 25.1181 80.5048 24.8179 80.543 24.4967C80.5606 24.3586 80.5841 24.1604 80.6164 23.8962C80.6987 23.0115 80.773 22.411 80.8396 22.0948C80.8885 21.8108 81.0196 21.5483 81.2157 21.3411C81.4947 21.0829 81.7148 20.9658 82.2788 20.4404C83.6976 19.1163 84.0238 18.6389 84.0238 18.6389C84.1883 18.4077 84.1705 18.3747 84.1764 18.3387C84.2199 18.2102 84.2428 18.0753 84.2441 17.9393V17.9393ZM68.3817 23.749C68.3406 24.1003 68.3052 24.3916 68.2758 24.6288C68.2497 24.8513 68.2057 25.0712 68.1439 25.2863C68.044 25.6556 67.9557 25.9528 67.8823 26.187C67.8088 26.4212 67.7266 26.6373 67.6356 26.8715C67.568 27.0584 67.4814 27.2376 67.3771 27.406C67.2935 27.5331 67.1948 27.649 67.0833 27.7512C66.9865 27.8521 66.8678 27.9281 66.7368 27.9733C66.5981 28.0177 66.4533 28.0391 66.3079 28.0365C65.8595 28.0365 65.7459 27.7102 65.9672 27.0577C66.2474 26.2495 66.6119 25.4744 67.0541 24.7458C67.4082 24.1067 67.8824 23.5455 68.4494 23.0944L68.3817 23.749ZM69.6861 12.6611L69.6565 12.8443L69.3628 14.6848C69.2541 15.3093 68.984 16.4112 68.8048 17.0237C68.5786 17.7983 67.5562 18.4919 67.098 18.4919C66.9632 18.4878 66.8324 18.445 66.7202 18.3686C66.608 18.2922 66.519 18.185 66.4634 18.0594C66.2167 17.6121 66.1552 16.9546 66.2844 16.0809C66.4249 15.116 66.7354 14.1852 67.201 13.3337C67.9853 11.9556 68.7458 12.0037 69.4391 12.0487C69.7064 12.0638 69.7065 12.4329 69.68 12.6611H69.6861ZM78.5306 23.749C78.4895 24.1003 78.4544 24.3916 78.4251 24.6288C78.399 24.8513 78.3547 25.0712 78.2928 25.2863C78.19 25.6556 78.1046 25.9528 78.0312 26.187C77.9578 26.4212 77.8726 26.6373 77.7845 26.8715C77.7169 27.0584 77.6303 27.2376 77.526 27.406C77.4425 27.5331 77.3438 27.649 77.2323 27.7512C77.1354 27.8521 77.0168 27.9281 76.8858 27.9733C76.747 28.0177 76.6022 28.0391 76.4569 28.0365C76.0065 28.0365 75.8929 27.7102 76.1161 27.0577C76.3952 26.249 76.7597 25.4737 77.203 24.7458C77.5571 24.1067 78.0313 23.5455 78.5983 23.0944L78.5306 23.749ZM79.7733 12.5771L79.2974 15.0331C79.1865 15.7274 79.0235 16.4119 78.8098 17.0807C78.516 17.8283 77.7023 18.4919 77.2441 18.4919C77.1093 18.4878 76.9784 18.445 76.8663 18.3686C76.7541 18.2922 76.665 18.185 76.6095 18.0594C76.3628 17.6121 76.3157 16.9546 76.4274 16.0809C76.5562 15.3318 76.8098 14.6108 77.1766 13.9491C78.0579 12.1717 78.2634 11.8055 79.4942 12.1207C79.5873 12.1482 79.6668 12.2103 79.7174 12.2947C79.768 12.3792 79.7858 12.4799 79.7673 12.5771H79.7733Z" fill="white"/>
<path d="M86.4619 10.4393H87.3813V11.6402C87.6202 11.1975 87.9747 10.8312 88.4051 10.5821C88.8356 10.3329 89.3253 10.2108 89.8197 10.2292C91.6585 10.2292 92.2548 11.4752 92.4399 11.9676C92.6808 11.4272 93.0744 10.9727 93.5701 10.6628C94.0659 10.353 94.6411 10.2021 95.2216 10.2292C95.6082 10.2095 95.9946 10.2702 96.3576 10.4075C96.7206 10.5447 97.0525 10.7557 97.3335 11.0277C98.0913 11.8024 98.1384 12.8622 98.1384 13.6368V20.026H97.219V13.6368C97.219 13.0033 97.175 12.2018 96.6668 11.6614C96.4821 11.4779 96.2622 11.3354 96.0211 11.243C95.7799 11.1505 95.5227 11.1099 95.2655 11.1239C92.7833 11.1239 92.76 13.6609 92.76 14.2464V20.026H91.8406V13.8711C91.8406 13.2706 91.7965 11.1239 89.7844 11.1239C88.1511 11.1239 87.3931 12.58 87.3931 14.4805V20.026H86.4737L86.4619 10.4393Z" fill="white"/>
<path d="M109.08 2.89722H110V20.0109H109.08V18.2965C108.686 18.9113 108.146 19.4144 107.511 19.7592C106.876 20.104 106.166 20.2795 105.447 20.2692C103.079 20.2692 100.853 18.5308 100.853 15.1651C100.853 11.6643 103.173 10.2081 105.447 10.2081C106.158 10.1855 106.863 10.3458 107.498 10.6741C108.133 11.0025 108.677 11.4886 109.08 12.0877V2.89722ZM101.816 15.1591C101.816 17.9574 103.608 19.3895 105.494 19.3895C107.38 19.3895 109.125 17.9574 109.125 15.1591C109.125 12.9283 107.77 11.1208 105.447 11.1208C103.517 11.1208 101.816 12.481 101.816 15.1591Z" fill="white"/>
</g>
<defs>
<clipPath id="clip0_192_13325">
<rect width="110" height="30" fill="white"/>
</clipPath>
</defs>
</svg>
