<svg width="162" height="43" viewBox="0 0 162 43" fill="none" xmlns="http://www.w3.org/2000/svg">
<g clip-path="url(#clip0_192_12593)">
<path d="M7.11631 14.3219C6.63615 13.8464 6.25548 13.281 5.99633 12.6583C5.73718 12.0356 5.60468 11.368 5.60649 10.694C5.60632 10.3339 5.64402 9.97477 5.71897 9.62247L8.78187 12.665L24.9096 28.704L28.8464 24.7921L12.71 8.74465L9.64709 5.70209C10.0026 5.62616 10.365 5.58721 10.7286 5.58589C11.4063 5.5856 12.0773 5.71856 12.7031 5.97704C13.329 6.23553 13.8974 6.61444 14.3755 7.09209L30.5033 23.131L32.1991 21.4441L34.4876 19.1676L19.2424 4.00225L18.3772 3.14156C17.3803 2.12745 16.191 1.32014 14.8783 0.766368C13.5656 0.2126 12.1555 -0.0766213 10.7296 -0.0845492C9.30375 -0.0924772 7.89048 0.181003 6.57162 0.72014C5.25276 1.25928 4.05451 2.05328 3.04626 3.05625C2.03802 4.05922 1.2398 5.25125 0.697822 6.5632C0.155845 7.87515 -0.119129 9.28099 -0.11116 10.6994C-0.10319 12.1178 0.187555 13.5205 0.744241 14.8263C1.30093 16.1322 2.11249 17.3152 3.13195 18.3069L14.2328 29.3538L19.2337 34.3544L23.2224 30.3651L7.11631 14.3219Z" fill="#E4606E"/>
<path d="M36.1375 17.4549C37.7632 15.3913 38.5731 12.807 38.4142 10.1901C38.2553 7.5731 37.1386 5.10461 35.275 3.25076C33.4114 1.39691 30.9299 0.286004 28.2991 0.127928C25.6684 -0.0301482 23.0705 0.775584 20.9961 2.3928L36.1375 17.4549Z" fill="#E4606E"/>
<path d="M124.081 25.7131C124.007 25.3963 123.859 25.1014 123.648 24.8524C123.562 24.7472 123.448 24.6682 123.319 24.6243C123.178 24.5872 123.033 24.5628 122.887 24.5512C122.8 24.5466 122.713 24.5625 122.633 24.5976C122.553 24.6328 122.483 24.6862 122.428 24.7535C122.047 25.1838 121.9 25.2698 121.563 25.6485C120.944 26.1735 119.292 27.3355 119.041 27.4818C119.071 26.3794 119.169 25.2801 119.335 24.1897C119.439 23.2429 119.629 22.4425 119.733 21.6076C119.837 20.7727 119.967 19.9637 120.036 19.43C120.209 18.0572 120.52 17.2784 120.538 16.8136V16.7705C120.538 16.7705 120.538 15.5742 118.699 14.9287C117.651 14.5423 116.514 14.4587 115.42 14.6876C114.41 14.9584 113.486 15.4796 112.733 16.2025C111.904 16.9332 111.215 17.8082 110.7 18.7845L109.008 22.4209C108.303 24.4737 105.548 26.8836 105.375 27.0557L105.344 27.0773C105.016 27.3269 104.406 27.7486 104.129 27.9121C104.276 26.3715 104.457 25.0547 104.561 24.0993C104.665 23.144 104.89 22.5027 104.994 21.4742C105.08 20.6694 105.184 20.0455 105.24 19.4947C105.392 18.0831 105.673 17.2138 105.6 16.7533C105.6 16.7533 105.6 15.5569 103.765 14.9114C102.75 14.5178 101.641 14.4304 100.576 14.66C99.5113 14.8896 98.5381 15.426 97.7779 16.2025C96.9482 16.9332 96.2592 17.8082 95.7446 18.7845C95.1273 20.0091 94.6066 21.2796 94.1873 22.5845C94.0068 23.1188 93.8878 23.6718 93.8325 24.2328C93.5643 24.435 93.2961 24.6329 93.0062 24.8137C92.6385 25.046 92.2794 25.244 91.929 25.4376C91.6086 25.6024 91.2776 25.7462 90.9383 25.868C90.6835 25.9638 90.4146 26.0176 90.1423 26.0273C89.8978 26.0109 89.6606 25.9371 89.4502 25.8121C89.3496 25.6984 89.2809 25.5604 89.2511 25.4119C89.2043 25.2128 89.1782 25.0094 89.1733 24.805C89.1733 24.5727 89.1733 24.3187 89.1733 24.0433C89.1875 23.7669 89.2237 23.4921 89.2814 23.2214C89.3506 22.8427 89.4328 22.4037 89.528 21.9002C89.6232 21.3967 89.74 20.7641 89.8828 19.9938C90.0255 19.2235 90.151 18.5737 90.2505 18.0314C90.3472 17.5374 90.4065 17.0368 90.4279 16.5338C90.4279 16.0734 90.4581 15.7119 90.4581 15.4451C90.4538 15.3041 90.4114 15.167 90.3352 15.0481C90.2591 14.9292 90.1521 14.8329 90.0255 14.7695C89.7717 14.5996 89.4624 14.5318 89.1603 14.5801C88.762 14.5735 88.3673 14.6559 88.0052 14.8211C87.8684 14.8689 87.7447 14.9479 87.6441 15.0518C87.5434 15.1557 87.4686 15.2816 87.4255 15.4193L85.6951 23.3849C85.6267 23.7612 85.5058 24.1262 85.336 24.4694C85.1988 24.7582 85.013 25.0217 84.7866 25.2483C84.6072 25.455 84.3899 25.6259 84.1463 25.7518C83.91 25.8753 83.6603 25.9721 83.4022 26.0402C83.0955 26.0953 82.7831 26.1126 82.4721 26.0918C82.2773 26.1037 82.0844 26.0474 81.927 25.9326C81.8093 25.8276 81.7137 25.7002 81.6458 25.5581C81.5749 25.4222 81.5225 25.2775 81.4901 25.1278C81.4548 24.9536 81.4375 24.7762 81.4382 24.5985C81.4382 24.5985 81.4641 24.4436 81.516 24.1681C81.568 23.8927 81.6329 23.5141 81.7151 23.0579C81.7973 22.6018 81.9097 21.9864 82.0482 21.229C82.1866 20.4716 82.3077 19.7787 82.4202 19.1547C82.5327 18.5307 82.6452 17.9196 82.7533 17.3042C82.8615 16.6888 82.9653 16.0562 83.0561 15.3935C83.0522 15.2823 83.0184 15.1742 82.9583 15.0804C82.8982 14.9866 82.814 14.9104 82.7144 14.8598C82.3643 14.6852 81.9768 14.598 81.5853 14.6059C81.2657 14.5621 80.9403 14.5975 80.6379 14.7092C80.3709 14.9317 80.1517 15.2054 79.9933 15.514C79.9933 15.514 79.5131 16.1035 78.0854 23.0923C78.083 23.108 78.083 23.124 78.0854 23.1397C78.0854 23.1397 78.0854 23.1654 78.0854 23.174C78.0595 23.3117 78.0378 23.4366 78.0249 23.5528C77.9557 23.9014 77.8994 24.2843 77.7653 24.3876C77.2867 24.7491 76.7738 25.0632 76.2339 25.3257C75.7703 25.5616 75.2615 25.6966 74.7414 25.7217C74.4421 25.737 74.144 25.6747 73.8761 25.5409C73.635 25.4128 73.4264 25.2318 73.2661 25.0116C73.0982 24.7804 72.967 24.525 72.8768 24.2542C72.7771 23.9736 72.699 23.6859 72.6432 23.3935C72.5869 23.0966 72.548 22.7996 72.5221 22.5328C72.4961 22.266 72.4874 21.982 72.4788 21.7454C72.4578 20.9686 72.4809 20.1913 72.548 19.4171C72.6144 18.5966 72.7009 17.7575 72.8076 16.8997C72.9157 16.039 73.0369 15.1783 73.171 14.2745C73.3051 13.3708 73.4305 12.5101 73.5387 11.6666C73.6468 10.8231 73.7334 10.0314 73.8026 9.2826C73.8679 8.60184 73.8925 7.91782 73.8761 7.23416C73.8601 6.75258 73.7875 6.27449 73.6598 5.80969C73.536 5.34071 73.3342 4.8956 73.0628 4.49281C72.8004 4.10161 72.4548 3.77253 72.0505 3.52885C71.6104 3.27484 71.1049 3.1551 70.5969 3.18455C70.0779 3.20254 69.564 3.29239 69.0698 3.45141C68.4844 3.64891 67.9351 3.93958 67.4432 4.3121C66.8086 4.78583 66.236 5.33666 65.7387 5.95174C65.0658 6.77792 64.4706 7.6638 63.9607 8.59832C63.2659 9.8499 62.6504 11.1434 62.1178 12.4714C61.4991 13.9819 61.2742 15.0793 60.5301 17.0545L60.6728 15.8454C60.6728 15.8454 60.781 15.1481 61.1574 12.7856C61.4553 11.2075 61.6318 9.60913 61.6852 8.00439C61.6747 7.39747 61.5934 6.79384 61.4429 6.20558C61.3152 5.70457 61.0839 5.23558 60.7637 4.82849C60.4443 4.44869 60.0357 4.15307 59.574 3.96781C59.0054 3.75478 58.3983 3.66237 57.7917 3.69663C57.298 3.71899 56.8152 3.84828 56.377 4.07539C55.8451 4.36021 55.3713 4.74115 54.9797 5.19864C54.4646 5.79996 54.0351 6.46892 53.7035 7.18677C53.2503 8.10274 52.8993 9.06523 52.6566 10.0571C52.6305 10.1409 52.6159 10.2278 52.6133 10.3154C52.6233 10.4533 52.6679 10.5864 52.7431 10.7027C52.829 10.8503 52.9337 10.9863 53.0546 11.1073C53.1715 11.2286 53.3038 11.3342 53.4482 11.4214C53.5663 11.5031 53.7067 11.5467 53.8505 11.5462C54.0039 11.5583 54.1568 11.5173 54.2832 11.43C54.4088 11.3436 54.5042 11.2202 54.5557 11.0771C54.7881 10.5333 55.057 10.0057 55.3604 9.49777C55.6222 9.05038 55.9112 8.61924 56.2256 8.20674C56.4782 7.88634 56.7687 7.59737 57.0908 7.34605C57.2879 7.16707 57.5356 7.05286 57.8003 7.01899C57.8632 7.01264 57.9267 7.0214 57.9854 7.04462C58.0441 7.06784 58.0964 7.10476 58.1377 7.15231C58.2179 7.25167 58.2741 7.36798 58.3021 7.4923C58.3387 7.633 58.359 7.77738 58.3627 7.92265V8.28417C58.3367 9.33421 58.2978 10.324 58.2546 11.2492C58.2113 12.1744 58.1161 13.1341 57.9906 13.9776L57.7311 15.7678C57.6013 16.7232 57.4412 17.7302 57.2422 18.7802C57.0836 19.661 56.912 20.5862 56.7274 21.5559C56.5428 22.5256 56.3496 23.58 56.1477 24.719C56.0791 25.0575 56.0286 25.3995 55.9963 25.7433C55.9703 26.0789 55.9617 26.4533 55.9704 26.8664C55.9767 27.2247 56.0425 27.5794 56.165 27.9164C56.2703 28.2003 56.4289 28.4617 56.6323 28.6868C56.8175 28.8853 57.0431 29.0423 57.2941 29.1473C57.5324 29.2458 57.789 29.2928 58.0469 29.285C58.4731 29.2785 58.8887 29.1516 59.2452 28.9192C59.6526 28.6239 59.9712 28.2237 60.1667 27.7616C60.4551 26.7546 60.7752 25.6801 61.1271 24.5383C61.4789 23.3964 61.8337 22.2373 62.1913 21.0611C62.559 19.8819 62.9397 18.7114 63.3334 17.5409C63.7271 16.3703 64.1337 15.2601 64.5447 14.2014C64.9557 13.1428 65.3667 12.1572 65.7863 11.2406C66.1537 10.4183 66.5742 9.62055 67.0452 8.85226C67.3907 8.27095 67.8094 7.73579 68.2911 7.2599C68.6043 6.9177 69.0349 6.70438 69.4981 6.66177C69.6077 6.65635 69.7171 6.67697 69.8171 6.72186C69.9172 6.76676 70.005 6.83468 70.0735 6.92001C70.2221 7.10777 70.3324 7.32268 70.3979 7.55261C70.4702 7.80299 70.5194 8.05939 70.545 8.31863C70.5753 8.58545 70.5883 8.79631 70.5969 8.95553C70.6086 9.56513 70.5637 10.1745 70.4628 10.7759C70.3547 11.4042 70.2249 12.0669 70.0648 12.7297C69.9048 13.3924 69.7274 14.0809 69.5284 14.7652C69.3294 15.4494 69.1477 16.1508 68.9919 16.8695C68.8362 17.5882 68.7021 18.3198 68.6026 19.06C68.4991 19.8084 68.4585 20.5642 68.4815 21.3193C68.4998 21.921 68.5489 22.5214 68.6286 23.1181C68.7121 23.7331 68.8393 24.3414 69.0093 24.9385C69.1726 25.52 69.3943 26.0837 69.6711 26.6211C69.9295 27.1297 70.2651 27.5957 70.6661 28.0026C71.0612 28.3963 71.5301 28.7092 72.0462 28.9235C72.6279 29.1515 73.2516 29.2541 73.8761 29.2247C74.4221 29.2063 74.9639 29.1225 75.4898 28.9752C76.047 28.823 76.5898 28.6228 77.1121 28.3769L78.0854 27.9207C78.1859 28.1942 78.3322 28.4489 78.5181 28.6738C78.7217 28.9167 78.9836 29.1046 79.2795 29.2204C79.5398 29.3394 79.8171 29.4178 80.1014 29.4528C80.5566 29.5063 81.0161 29.5135 81.4728 29.4743C81.8959 29.4081 82.3107 29.297 82.7101 29.1429C83.1493 28.9698 83.5673 28.7474 83.956 28.4802C84.3862 28.1805 84.7913 27.8466 85.1673 27.4818C85.5712 27.0867 85.9484 26.6655 86.2964 26.2209C86.3835 26.6338 86.4976 27.0407 86.6382 27.4388C86.7532 27.7724 86.9148 28.0882 87.1184 28.3769C87.2975 28.6272 87.5293 28.8357 87.7976 28.988C88.0903 29.1375 88.4161 29.2115 88.745 29.2031C89.1432 29.1982 89.5394 29.1477 89.926 29.0526C90.3676 28.9373 90.8011 28.7936 91.2239 28.6222C91.6756 28.45 92.1176 28.2531 92.5476 28.0326C92.9889 27.8088 93.4042 27.5765 93.7936 27.3355C93.9753 27.2236 94.1224 27.1117 94.2911 26.9955C94.6181 27.6627 95.1092 28.237 95.7187 28.6652C96.3344 29.1192 97.0808 29.3637 97.8471 29.3624C98.894 29.3624 99.9713 28.8417 101.079 27.8002L100.785 29.5518C100.162 30.094 99.6252 30.5975 99.1752 31.0623C98.7253 31.527 98.1485 32.1496 97.4448 32.93C97.0889 33.3286 96.7595 33.7498 96.4585 34.1909C96.134 34.66 95.9047 35.0214 95.7619 35.2754L94.9832 36.6352C94.3711 37.6205 94.0697 38.7658 94.118 39.9231C94.1538 40.4275 94.2921 40.9193 94.5247 41.369C94.7265 41.7591 95.0241 42.0922 95.3899 42.3373C95.7539 42.5699 96.1525 42.7443 96.5709 42.8538C97.026 42.9693 97.4943 43.0257 97.9639 43.0215C98.5539 43.0303 99.1405 42.9311 99.6944 42.7289C100.184 42.5508 100.641 42.2918 101.044 41.9629C101.437 41.628 101.78 41.2381 102.061 40.8053C102.347 40.3705 102.593 39.911 102.796 39.4324C102.993 38.9416 103.158 38.4384 103.289 37.9262C103.422 37.4443 103.522 36.9541 103.588 36.4588C103.644 36.0285 103.7 35.5981 103.757 35.1376C103.783 34.9397 103.817 34.6599 103.865 34.2769C103.986 33.0088 104.095 32.1482 104.194 31.6949C104.242 31.3153 104.439 30.9702 104.743 30.7352C105.176 30.4469 105.608 29.9606 106.564 29.3495L106.772 29.2204C107.38 28.7255 107.958 28.1953 108.502 27.6324C108.758 27.3742 108.974 27.1333 109.173 26.8966V26.9395C109.503 27.6294 110.006 28.2225 110.635 28.6609C111.251 29.1154 111.997 29.36 112.764 29.3581C113.811 29.3581 114.888 28.8373 115.995 27.7959L115.701 29.5474C115.078 30.0897 114.542 30.5932 114.092 31.058C113.642 31.5227 113.065 32.1453 112.361 32.9257C112.005 33.3243 111.676 33.7455 111.375 34.1866C111.05 34.6556 110.821 35.0171 110.678 35.271L109.9 36.6309C109.288 37.6162 108.986 38.7615 109.034 39.9188C109.07 40.4232 109.209 40.915 109.441 41.3647C109.642 41.7553 109.94 42.0886 110.306 42.333C110.67 42.5664 111.069 42.7408 111.487 42.8495C111.942 42.965 112.411 43.0214 112.88 43.0172C113.47 43.026 114.057 42.9268 114.611 42.7246C115.101 42.5465 115.557 42.2875 115.961 41.9586C116.354 41.6236 116.696 41.2337 116.977 40.801C117.263 40.3671 117.508 39.9074 117.708 39.4281C117.909 38.9381 118.075 38.4348 118.206 37.9219C118.336 37.4395 118.436 36.9494 118.504 36.4545C118.561 36.0241 118.617 35.5938 118.673 35.1333C118.699 34.9353 118.734 34.6556 118.781 34.2726C118.902 33.0045 119.012 32.1438 119.11 31.6905C119.181 31.2832 119.374 30.9068 119.664 30.6104C120.096 30.2403 120.399 30.0681 121.23 29.3194C123.319 27.4215 123.799 26.7373 123.799 26.7373C124.042 26.4102 124.016 26.3586 124.024 26.3069C124.076 26.1135 124.095 25.9128 124.081 25.7131ZM100.698 34.0402C100.637 34.5394 100.586 34.9612 100.542 35.3012C100.508 35.6194 100.443 35.9336 100.348 36.2393C100.201 36.7729 100.071 37.1947 99.9626 37.5303C99.8545 37.866 99.7333 38.1759 99.5992 38.5116C99.4988 38.7791 99.3712 39.0358 99.2185 39.2776C99.0931 39.4579 98.948 39.6239 98.7859 39.7724C98.642 39.9155 98.4675 40.0243 98.2754 40.0909C98.0703 40.1504 97.8575 40.1794 97.6438 40.1769C96.9819 40.1769 96.8132 39.7122 97.142 38.774C97.5548 37.617 98.0914 36.5076 98.7426 35.4647C99.2643 34.5489 99.9626 33.7445 100.798 33.0978C100.792 33.224 100.759 33.5381 100.698 34.0402ZM102.619 18.1476L102.576 18.4102L102.143 21.0481C101.983 21.9433 101.585 23.5183 101.321 24.3962C100.988 25.5108 99.4824 26.5007 98.8075 26.5007C98.6091 26.4948 98.4162 26.4336 98.251 26.3241C98.0858 26.2145 97.9549 26.0609 97.8731 25.8809C97.5097 25.244 97.4188 24.2973 97.6092 23.0493C97.8158 21.6649 98.2731 20.3293 98.9589 19.1073C100.114 17.1363 101.234 17.2052 102.255 17.2654C102.658 17.2869 102.658 17.8163 102.619 18.1476ZM115.645 34.0402C115.584 34.5394 115.532 34.9612 115.489 35.3012C115.451 35.6188 115.385 35.9326 115.294 36.2393C115.143 36.7729 115.017 37.1947 114.909 37.5303C114.801 37.866 114.676 38.1759 114.546 38.5116C114.446 38.7791 114.318 39.0358 114.165 39.2776C114.04 39.4579 113.895 39.6239 113.733 39.7724C113.589 39.9155 113.414 40.0243 113.222 40.0909C113.017 40.1504 112.804 40.1794 112.591 40.1769C111.929 40.1769 111.76 39.7122 112.089 38.774C112.5 37.6163 113.036 36.5066 113.689 35.4647C114.21 34.5479 114.908 33.7433 115.744 33.0978C115.738 33.224 115.705 33.5381 115.645 34.0402ZM117.475 18.0228L116.774 21.5431C116.611 22.5397 116.37 23.5223 116.056 24.4823C115.623 25.5538 114.425 26.5007 113.75 26.5007C113.551 26.4948 113.359 26.4336 113.193 26.3241C113.028 26.2145 112.897 26.0609 112.815 25.8809C112.452 25.244 112.383 24.2973 112.547 23.0493C112.738 21.9744 113.111 20.9396 113.65 19.9895C114.948 17.4419 115.251 16.9211 117.064 17.373C117.203 17.4087 117.323 17.4959 117.399 17.6167C117.475 17.7375 117.502 17.8828 117.475 18.0228Z" fill="white"/>
<path d="M127.352 14.9589H128.706V16.6802C129.058 16.0467 129.581 15.5228 130.214 15.1666C130.848 14.8103 131.569 14.6356 132.296 14.6619C135.004 14.6619 135.883 16.4478 136.155 17.1535C136.509 16.3782 137.089 15.7263 137.819 15.2821C138.549 14.8379 139.397 14.6219 140.252 14.6619C140.821 14.633 141.391 14.7195 141.926 14.9163C142.46 15.1131 142.949 15.416 143.363 15.8066C144.483 16.9169 144.548 18.4317 144.548 19.542V28.704H143.194V19.542C143.194 18.634 143.129 17.4892 142.38 16.7146C142.109 16.45 141.786 16.2446 141.431 16.1112C141.075 15.9778 140.696 15.9195 140.317 15.9401C136.661 15.9401 136.627 19.5764 136.627 20.4199V28.704H135.273V19.882C135.273 19.0213 135.208 15.9401 132.244 15.9401C129.839 15.9401 128.723 18.0272 128.723 20.7556V28.704H127.352V14.9589Z" fill="white"/>
<path d="M160.662 4.14844H162.016V28.6996H160.662V26.238C160.081 27.1194 159.287 27.8408 158.351 28.3358C157.416 28.8307 156.37 29.0832 155.311 29.0697C151.828 29.0697 148.545 26.578 148.545 21.7539C148.545 16.7361 151.963 14.6489 155.311 14.6489C156.358 14.6161 157.397 14.8456 158.332 15.3163C159.267 15.787 160.069 16.4839 160.662 17.3429V4.14844ZM149.947 21.7151C149.947 25.7216 152.586 27.7744 155.363 27.7744C158.14 27.7744 160.71 25.7216 160.71 21.7151C160.71 18.5177 158.716 15.9227 155.294 15.9227C152.443 15.9356 149.947 17.8894 149.947 21.7151Z" fill="white"/>
</g>
<defs>
<clipPath id="clip0_192_12593">
<rect width="162" height="43" fill="white"/>
</clipPath>
</defs>
</svg>
