<svg width="142" height="39" viewBox="0 0 142 39" fill="none" xmlns="http://www.w3.org/2000/svg">
<g clip-path="url(#clip0_192_13540)">
<path d="M6.23815 12.9897C5.81778 12.5581 5.48431 12.0452 5.25719 11.4805C5.03007 10.9158 4.91369 10.3105 4.91465 9.69933C4.91457 9.37143 4.94771 9.04441 5.01334 8.72355L7.69794 11.487L21.8347 26.0377L25.2816 22.4861L11.1487 7.93911L8.46393 5.17567C8.77566 5.10812 9.09337 5.07401 9.41194 5.07409C10.0057 5.0731 10.5938 5.19308 11.1424 5.42686C11.691 5.66063 12.1894 6.00368 12.6087 6.43637L26.7455 20.9871L28.2319 19.4571L30.2379 17.3924L16.8747 3.63786L16.1163 2.85724C14.3443 1.03275 11.9406 0.00744597 9.43416 0.00708018C6.92774 0.00671438 4.52383 1.03117 2.75127 2.85514C0.978708 4.67911 -0.0172223 7.15321 -0.017578 9.73306C-0.0179338 12.3129 0.977359 14.7873 2.74942 16.6117L12.4835 26.631L16.8671 31.1665L20.3635 27.5523L6.23815 12.9897Z" fill="#1E4A7D"/>
<path d="M31.6705 15.8313C33.1045 13.961 33.8217 11.614 33.686 9.23559C33.5503 6.85716 32.5711 4.61278 30.9343 2.92808C29.2976 1.24338 27.1171 0.2355 24.8064 0.0958373C22.4956 -0.043825 20.2155 0.694378 18.3984 2.17032L31.6705 15.8313Z" fill="#1E4A7D"/>
<path d="M108.751 23.3211C108.718 23.1857 108.669 23.0548 108.607 22.9308C108.547 22.7993 108.469 22.6772 108.375 22.5679C108.302 22.4701 108.202 22.3978 108.087 22.3609C107.963 22.3261 107.836 22.3027 107.708 22.2908C107.632 22.2876 107.556 22.3025 107.486 22.3343C107.417 22.3661 107.355 22.4139 107.306 22.4741C106.973 22.8645 106.843 22.9426 106.529 23.286C105.986 23.7622 104.538 24.82 104.318 24.9527C104.344 23.9529 104.431 22.9557 104.576 21.9668C104.667 21.1042 104.834 20.3822 104.925 19.6249C105.016 18.8677 105.13 18.134 105.19 17.6734C105.342 16.4244 105.615 15.7217 105.63 15.2963V15.2574C105.63 15.2574 105.63 14.1722 104.018 13.5867C103.099 13.2386 102.103 13.1643 101.144 13.3721C100.257 13.6144 99.4452 14.0859 98.7853 14.742C98.0582 15.413 97.4558 16.2145 97.0071 17.1074L95.5244 20.4056C94.9063 22.2635 92.4906 24.4491 92.3389 24.6052L92.3126 24.6287C92.0244 24.8512 91.4895 25.2337 91.2468 25.3821C91.3758 23.9847 91.535 22.7941 91.626 21.9237C91.7171 21.0534 91.9142 20.4758 92.0052 19.5468C92.0811 18.8169 92.1722 18.247 92.2215 17.7513C92.3542 16.4711 92.6007 15.6789 92.5363 15.2652C92.5363 15.2652 92.5362 14.18 90.9284 13.5945C90.0222 13.2532 89.0424 13.1749 88.0958 13.3681C87.1867 13.6024 86.3536 14.0789 85.6803 14.7499C84.9519 15.4207 84.348 16.2222 83.8979 17.1152C83.3574 18.2248 82.9011 19.3756 82.533 20.5577C82.3744 21.0435 82.2699 21.5465 82.2219 22.0566C81.9868 22.2361 81.7516 22.4157 81.4976 22.5835C81.174 22.7943 80.8591 22.9816 80.5533 23.1456C80.2726 23.2983 79.9811 23.4288 79.6812 23.5359C79.4592 23.6237 79.2248 23.6737 78.9872 23.6842C78.7725 23.668 78.5648 23.5997 78.3806 23.485C78.2914 23.3827 78.2311 23.2572 78.2062 23.1221C78.1652 22.9416 78.142 22.7571 78.1377 22.5717C78.1377 22.361 78.1377 22.1307 78.1377 21.8809C78.1485 21.63 78.1802 21.3806 78.2325 21.1353C78.2932 20.7918 78.3653 20.3939 78.4488 19.9411C78.5322 19.4845 78.6347 18.9067 78.7598 18.212C78.885 17.5172 78.9948 16.9201 79.082 16.4283C79.1649 15.9799 79.217 15.526 79.2375 15.07C79.2527 14.6563 79.2605 14.3284 79.2605 14.0864C79.2574 13.958 79.2202 13.8327 79.1535 13.7241C79.0867 13.6155 78.9928 13.5276 78.8813 13.4697C78.6588 13.3156 78.3877 13.2542 78.1229 13.298C77.7733 13.2911 77.4265 13.3672 77.1101 13.5204C76.9898 13.5633 76.8814 13.6348 76.7931 13.7291C76.7048 13.8234 76.6392 13.9378 76.602 14.063L75.0852 21.2876C75.0246 21.6275 74.9187 21.9573 74.7704 22.2674C74.6501 22.5305 74.4875 22.7707 74.289 22.9777C74.13 23.1632 73.9397 23.3179 73.7276 23.4343C73.5203 23.5452 73.3016 23.6317 73.0755 23.692C72.8069 23.744 72.5326 23.7597 72.2601 23.7389C72.0888 23.754 71.9184 23.7024 71.7823 23.5944C71.6791 23.4991 71.5956 23.3836 71.5361 23.2548C71.4733 23.1318 71.4272 23.0004 71.3994 22.8645C71.3687 22.7077 71.3534 22.5483 71.3539 22.3884C71.3539 22.3884 71.3765 22.244 71.422 21.9981C71.4675 21.7522 71.5244 21.4047 71.5964 20.987C71.6685 20.5694 71.7674 20.0191 71.8849 19.3282L72.2149 17.4508C72.3135 16.8848 72.4119 16.3268 72.5067 15.7725C72.6015 15.2183 72.6926 14.6405 72.7722 14.0356C72.7676 13.935 72.7374 13.8374 72.6848 13.7525C72.6323 13.6676 72.5592 13.5985 72.4726 13.5517C72.1652 13.395 71.8258 13.3161 71.4828 13.3214C71.2027 13.2836 70.918 13.3156 70.6525 13.415C70.4185 13.6183 70.2263 13.8678 70.0874 14.1488C70.0874 14.1488 69.6664 14.6796 68.4151 21.0183C68.4136 21.0326 68.4136 21.0469 68.4151 21.0612C68.4151 21.0612 68.4151 21.0847 68.4151 21.0964C68.3923 21.2213 68.3736 21.3345 68.3584 21.4399C68.3015 21.7521 68.2519 22.1035 68.1344 22.1932C67.7157 22.5224 67.266 22.8074 66.792 23.044C66.3856 23.2579 65.9399 23.3803 65.484 23.403C65.2214 23.4211 64.959 23.3644 64.7256 23.2391C64.5153 23.1232 64.3326 22.9607 64.1909 22.7631C64.0452 22.5525 63.9301 22.3209 63.8495 22.076C63.7623 21.8215 63.6938 21.5605 63.6447 21.2954C63.5954 21.0261 63.5611 20.7607 63.5384 20.4953C63.5156 20.2299 63.5082 19.9957 63.5006 19.781C63.4823 19.0766 63.5026 18.3715 63.5614 17.6694C63.6195 16.9252 63.6952 16.164 63.7887 15.386C63.8835 14.6054 63.9896 13.8249 64.1072 13.0053C64.2248 12.1856 64.3349 11.4049 64.4297 10.6438C64.5245 9.88265 64.6005 9.16065 64.6612 8.47761C64.7184 7.86147 64.7399 7.24239 64.7256 6.62362C64.7116 6.18556 64.648 5.75055 64.536 5.32766C64.4275 4.90231 64.2503 4.4988 64.0124 4.13348C63.7803 3.7805 63.4779 3.48236 63.1251 3.25909C62.7388 3.0302 62.2964 2.9218 61.8512 2.94691C60.8502 2.98054 59.8841 3.33377 59.0868 3.95776C58.5297 4.38494 58.0275 4.88326 57.5926 5.44087C57.0106 6.16681 56.4917 6.94398 56.0417 7.7633C55.4361 8.89969 54.898 10.0728 54.4301 11.2761C53.8879 12.6461 53.6718 13.6453 53.0385 15.4329L53.1636 14.3361C53.1636 14.3361 53.2585 13.7038 53.5884 11.561C53.8495 10.1311 54.0041 8.6827 54.0509 7.22853C54.0417 6.67678 53.9706 6.12801 53.8387 5.59315C53.7268 5.13992 53.5239 4.71583 53.2433 4.34807C52.9646 4.00215 52.606 3.73375 52.2005 3.56745C51.7025 3.37241 51.1699 3.28864 50.6381 3.3216C50.205 3.33904 49.7814 3.45638 49.3983 3.66503C48.9312 3.92032 48.5154 4.26474 48.1733 4.67988C47.716 5.22479 47.3333 5.83153 47.0357 6.48316C46.6391 7.31419 46.3314 8.18708 46.118 9.08652C46.0951 9.16377 46.0823 9.2438 46.0801 9.32455C46.0901 9.44934 46.129 9.56979 46.1938 9.6758C46.2701 9.80777 46.3619 9.92973 46.4669 10.0389C46.5693 10.1501 46.6853 10.2471 46.812 10.3276C46.9163 10.3999 47.0388 10.4393 47.1645 10.4408C47.2988 10.4499 47.4322 10.4128 47.5437 10.3354C47.6533 10.2547 47.7366 10.1417 47.7826 10.0114C47.9856 9.51788 48.2214 9.0393 48.4881 8.579C48.7174 8.17311 48.9707 7.78207 49.2465 7.40806C49.4661 7.11585 49.721 6.85355 50.0049 6.62743C50.1785 6.46656 50.3951 6.36329 50.6266 6.33089C50.682 6.32593 50.7377 6.3347 50.7892 6.35643C50.8406 6.37815 50.8864 6.41214 50.9225 6.45572C50.9921 6.54627 51.0413 6.6516 51.0666 6.76408C51.0976 6.89179 51.1141 7.02277 51.1158 7.15439V7.4862C51.0931 8.43856 51.0589 9.33233 51.021 10.1715C50.9831 11.0107 50.8999 11.881 50.7899 12.646L50.5622 14.2738C50.4484 15.1364 50.3082 16.0497 50.1337 17.006C49.9922 17.8022 49.842 18.6401 49.6827 19.5196C49.5234 20.3991 49.3537 21.3566 49.1742 22.3922C49.1139 22.6992 49.0697 23.0092 49.0417 23.3211C49.0143 23.6586 49.0069 23.9975 49.0191 24.3359C49.0243 24.6609 49.0817 24.9827 49.1894 25.2883C49.2793 25.5469 49.4186 25.7845 49.599 25.987C49.7603 26.1682 49.9585 26.3107 50.1793 26.4045C50.3883 26.4937 50.613 26.5376 50.8392 26.5334C51.2131 26.5261 51.5772 26.4097 51.8894 26.1977C52.2465 25.9316 52.5258 25.5697 52.6971 25.1516C52.9499 24.2331 53.2307 23.2573 53.5391 22.2243C53.8387 21.19 54.1496 20.1363 54.472 19.0707C54.7943 18.0052 55.1279 16.9395 55.4729 15.8817C55.818 14.824 56.1744 13.8132 56.5346 12.853C56.8949 11.8928 57.2552 10.9951 57.623 10.1637C57.9436 9.41714 58.3123 8.69353 58.7265 7.99753C59.0303 7.47214 59.3972 6.98827 59.8186 6.5573C60.0922 6.24569 60.4701 6.05187 60.8766 6.01471C60.9724 6.00836 61.0683 6.02607 61.1562 6.06617C61.244 6.10627 61.3212 6.16751 61.3809 6.24494C61.5113 6.41523 61.6079 6.61024 61.6653 6.81878C61.7283 7.04596 61.7714 7.27838 61.7942 7.51345C61.8208 7.75544 61.8323 7.95069 61.8361 8.09511C61.8496 8.64663 61.8116 9.19812 61.7224 9.74212C61.6276 10.3159 61.5135 10.9131 61.3732 11.5142C61.2329 12.1152 61.0777 12.7398 60.9032 13.3643C60.7288 13.9888 60.5694 14.6212 60.4329 15.273C60.2964 15.9248 60.1788 16.5843 60.0878 17.2556C60.0002 17.936 59.9661 18.6227 59.9856 19.3088C60.0015 19.8532 60.0445 20.3964 60.1145 20.9363C60.1851 21.4946 60.2966 22.0465 60.4481 22.5874C60.5919 23.1158 60.7863 23.6283 61.0284 24.1173C61.2557 24.5781 61.5498 25.0005 61.9005 25.3702C62.2459 25.7275 62.657 26.0103 63.1099 26.2017C63.618 26.4106 64.1641 26.5036 64.7104 26.4749C65.19 26.4576 65.6656 26.383 66.1284 26.2524C66.6169 26.113 67.0927 25.9302 67.5504 25.706C67.6907 25.6397 68.0738 25.4562 68.3999 25.2923C68.4872 25.5407 68.6154 25.7718 68.7791 25.9753C68.9566 26.1967 69.1863 26.3674 69.4464 26.471C69.6743 26.5807 69.9175 26.653 70.167 26.6856C70.5654 26.7279 70.967 26.7279 71.3654 26.6856C71.7376 26.6261 72.1025 26.5253 72.4537 26.3851C72.8401 26.2311 73.2068 26.0293 73.5458 25.784C73.9229 25.5136 74.2779 25.212 74.6075 24.8823C74.9606 24.5231 75.2913 24.1412 75.5973 23.7389C75.6736 24.1121 75.7737 24.4797 75.8969 24.8395C75.9969 25.1424 76.1384 25.429 76.3176 25.6904C76.4736 25.9184 76.6771 26.1077 76.9131 26.2446C77.1685 26.3837 77.4548 26.4522 77.7437 26.4436C78.093 26.4395 78.4403 26.3924 78.7787 26.3031C79.1654 26.207 79.5455 26.0845 79.9163 25.9363C80.2955 25.7801 80.6976 25.6006 81.0806 25.4015C81.4636 25.2024 81.8389 24.9878 82.1726 24.7653C82.3319 24.6638 82.4607 24.5623 82.6048 24.4608C82.8939 25.0654 83.3256 25.5862 83.8602 25.9753C84.4011 26.3842 85.0547 26.6043 85.7258 26.6037C86.6435 26.6037 87.5876 26.1315 88.5584 25.1869L88.3006 26.7794C87.7546 27.2686 87.2841 27.7252 86.8897 28.1493C86.4953 28.5734 85.9897 29.138 85.3729 29.8432C85.0601 30.204 84.7715 30.5861 84.5086 30.9869C84.2242 31.4084 84.0231 31.7363 83.8979 31.9705L83.2155 33.1999C82.6788 34.095 82.4147 35.1349 82.457 36.1858C82.4884 36.6432 82.6095 37.0896 82.8133 37.4974C82.988 37.8517 83.2494 38.1529 83.5717 38.3716C83.8914 38.5822 84.2407 38.7415 84.6071 38.8438C85.006 38.9486 85.4163 38.9998 85.828 38.9961C86.3454 39.0028 86.8595 38.9115 87.3448 38.7268C87.775 38.5668 88.1753 38.3317 88.528 38.0319C88.8728 37.7281 89.1728 37.3745 89.419 36.982C89.6714 36.5894 89.8862 36.1724 90.06 35.737C90.2359 35.2938 90.3817 34.8388 90.4962 34.3749C90.6099 33.9372 90.6971 33.4926 90.7577 33.0438C90.807 32.6535 90.8565 32.2633 90.9058 31.8456C90.9285 31.6661 90.9589 31.4085 91.0006 31.065C91.1068 29.9149 91.2027 29.1343 91.2887 28.7231C91.3088 28.5524 91.3615 28.3876 91.4442 28.2381C91.5269 28.0887 91.6377 27.9577 91.7701 27.8528C92.1493 27.5952 92.5285 27.1539 93.3665 26.5997L93.5487 26.4789C94.0808 26.0305 94.5872 25.5509 95.0655 25.0424C95.2893 24.8082 95.4789 24.5857 95.6495 24.371C95.6495 24.371 95.6495 24.3985 95.6495 24.4141C95.9384 25.0399 96.3799 25.5778 96.9312 25.9753C97.4715 26.3854 98.1255 26.6057 98.7968 26.6037C99.7145 26.6037 100.659 26.1315 101.629 25.1869L101.372 26.7794C100.826 27.2686 100.355 27.7252 99.9611 28.1493C99.5667 28.5734 99.0611 29.138 98.4443 29.8432C98.1315 30.204 97.8425 30.5861 97.5796 30.9869C97.2965 31.4084 97.0917 31.7363 96.9652 31.9705C96.8388 32.2047 96.6114 32.6145 96.2828 33.1999C95.7476 34.0957 95.4836 35.1351 95.5244 36.1858C95.5539 36.6436 95.6751 37.0902 95.8806 37.4974C96.0553 37.8517 96.3167 38.1529 96.639 38.3716C96.958 38.5837 97.3075 38.743 97.6744 38.8438C98.0733 38.9488 98.4836 39.0001 98.8953 38.9961C99.4127 39.0028 99.9268 38.9115 100.412 38.7268C100.842 38.5668 101.243 38.3317 101.595 38.0319C101.94 37.7281 102.24 37.3745 102.487 36.982C102.739 36.5894 102.953 36.1724 103.127 35.737C103.303 35.2938 103.449 34.8388 103.564 34.3749C103.677 33.9372 103.764 33.4926 103.825 33.0438C103.874 32.6535 103.924 32.2633 103.973 31.8456C103.996 31.6661 104.026 31.4085 104.068 31.065C104.174 29.9149 104.27 29.1343 104.356 28.7231C104.419 28.354 104.588 28.0127 104.841 27.7434C105.202 27.4077 105.486 27.2555 106.214 26.5724C108.045 24.8512 108.466 24.2306 108.466 24.2306C108.679 23.93 108.656 23.8871 108.664 23.8402C108.72 23.6732 108.749 23.4979 108.751 23.3211ZM88.274 30.8737C88.2209 31.3303 88.1752 31.709 88.1373 32.0174C88.1036 32.3067 88.0468 32.5926 87.967 32.8721C87.838 33.3522 87.724 33.7386 87.6292 34.0431C87.5344 34.3475 87.4283 34.6284 87.3108 34.9329C87.2235 35.1759 87.1117 35.4089 86.9771 35.6278C86.8692 35.7929 86.7418 35.9437 86.5979 36.0766C86.4728 36.2076 86.3197 36.3065 86.1506 36.3653C85.9715 36.4229 85.7846 36.4507 85.597 36.4474C85.018 36.4474 84.8713 36.0232 85.157 35.1749C85.5188 34.1243 85.9893 33.1166 86.5601 32.1694C87.0172 31.3387 87.6294 30.6091 88.3614 30.0227L88.274 30.8737ZM89.9578 16.4594L89.9196 16.6976L89.5404 19.0902C89.4001 19.902 89.0515 21.3345 88.8202 22.1307C88.5282 23.1377 87.2084 24.0394 86.6168 24.0394C86.4428 24.0341 86.2739 23.9785 86.1291 23.8791C85.9843 23.7798 85.8693 23.6404 85.7977 23.4772C85.4791 22.8956 85.3997 22.0409 85.5666 20.9051C85.7479 19.6508 86.1488 18.4408 86.7497 17.3338C87.7622 15.5422 88.744 15.6048 89.6389 15.6633C89.984 15.6828 89.9841 16.1627 89.95 16.4594H89.9578ZM101.375 30.8737C101.322 31.3303 101.277 31.709 101.239 32.0174C101.205 32.3067 101.148 32.5926 101.068 32.8721C100.936 33.3522 100.825 33.7386 100.731 34.0431C100.636 34.3475 100.526 34.6284 100.412 34.9329C100.325 35.1759 100.213 35.4089 100.078 35.6278C99.9706 35.7929 99.8432 35.9437 99.6993 36.0766C99.5742 36.2076 99.421 36.3065 99.2519 36.3653C99.0728 36.4229 98.8859 36.4507 98.6983 36.4474C98.1169 36.4474 97.9702 36.0232 98.2584 35.1749C98.6186 34.1236 99.0891 33.1158 99.6615 32.1694C100.119 31.3387 100.731 30.6091 101.463 30.0227L101.375 30.8737ZM102.98 16.3502L102.365 19.543C102.222 20.4456 102.012 21.3355 101.736 22.2049C101.356 23.1767 100.306 24.0394 99.7145 24.0394C99.5405 24.0341 99.3716 23.9785 99.2268 23.8791C99.0819 23.7798 98.967 23.6404 98.8953 23.4772C98.5768 22.8956 98.5161 22.0409 98.6602 20.9051C98.8265 19.9313 99.1539 18.994 99.6274 18.1338C100.765 15.8232 101.03 15.3471 102.619 15.7569C102.739 15.7926 102.842 15.8733 102.907 15.9831C102.973 16.0929 102.996 16.2238 102.972 16.3502H102.98Z" fill="#1E4A7D"/>
<path d="M111.615 13.5708H112.802V15.132C113.11 14.5564 113.568 14.0803 114.124 13.7564C114.679 13.4325 115.312 13.2738 115.95 13.2977C118.324 13.2977 119.093 14.9175 119.332 15.5576C119.643 14.855 120.151 14.2642 120.791 13.8614C121.431 13.4587 122.174 13.2624 122.923 13.2977C123.422 13.2721 123.921 13.351 124.39 13.5294C124.858 13.7079 125.287 13.9821 125.649 14.3358C126.628 15.3428 126.689 16.7206 126.689 17.7276V26.0335H125.502V17.7276C125.502 16.904 125.445 15.862 124.789 15.1595C124.55 14.921 124.267 14.7358 123.955 14.6155C123.644 14.4953 123.312 14.4426 122.98 14.4608C119.776 14.4608 119.746 17.7589 119.746 18.52V26.0335H118.559V18.0321C118.559 17.2515 118.502 14.4608 115.904 14.4608C113.796 14.4608 112.817 16.3537 112.817 18.8244V26.0335H111.63L111.615 13.5708Z" fill="#1E4A7D"/>
<path d="M140.813 3.76636H142V26.0142H140.813V23.7855C140.304 24.5846 139.607 25.2387 138.787 25.6869C137.967 26.1352 137.05 26.3633 136.122 26.35C133.066 26.35 130.191 24.0901 130.191 19.7147C130.191 15.1636 133.187 13.2705 136.122 13.2705C137.04 13.2411 137.951 13.4495 138.77 13.8764C139.59 14.3033 140.292 14.9351 140.813 15.714V3.76636ZM131.435 19.7068C131.435 23.3446 133.748 25.2063 136.183 25.2063C138.617 25.2063 140.87 23.3446 140.87 19.7068C140.87 16.8068 139.121 14.4571 136.122 14.4571C133.631 14.4571 131.435 16.2253 131.435 19.7068Z" fill="#1E4A7D"/>
</g>
<defs>
<clipPath id="clip0_192_13540">
<rect width="142" height="39" fill="white"/>
</clipPath>
</defs>
</svg>
