<svg width="228" height="63" viewBox="0 0 228 63" fill="none" xmlns="http://www.w3.org/2000/svg">
<g clip-path="url(#clip0_192_12760)">
<path d="M10.0171 20.9832C9.34211 20.286 8.80667 19.4574 8.442 18.5452C8.07733 17.6331 7.89047 16.6552 7.892 15.6679C7.89188 15.1383 7.94508 14.61 8.05046 14.0917L12.3609 18.5557L35.0594 42.0608L40.5939 36.3234L17.9016 12.8245L13.5909 8.36049C14.0914 8.25136 14.6015 8.19626 15.113 8.1964C16.0664 8.19481 17.0107 8.38862 17.8915 8.76625C18.7724 9.14389 19.5725 9.69805 20.2458 10.397L42.9443 33.9021L45.331 31.4305L48.5519 28.0952L27.0955 5.87634L25.8778 4.61533C23.0325 1.66807 19.1731 0.0118215 15.1487 0.0112306C11.1243 0.0106397 7.26449 1.66552 4.41841 4.61194C1.57233 7.55836 -0.0267724 11.555 -0.0273436 15.7224C-0.0279148 19.8899 1.57016 23.8869 4.41544 26.8341L20.0448 43.0191L27.0833 50.3457L32.6971 44.5074L10.0171 20.9832Z" fill="#1E4A7D"/>
<path d="M50.8511 25.5732C53.1535 22.552 54.3051 18.7608 54.0872 14.9187C53.8693 11.0766 52.2971 7.45107 49.6691 4.72964C47.0411 2.0082 43.54 0.380084 39.8298 0.154476C36.1196 -0.0711323 32.4585 1.12135 29.541 3.50557L50.8511 25.5732Z" fill="#1E4A7D"/>
<path d="M174.615 37.6723C174.561 37.4536 174.484 37.2421 174.383 37.0418C174.287 36.8294 174.161 36.6322 174.012 36.4556C173.894 36.2977 173.733 36.1808 173.549 36.1213C173.35 36.0649 173.146 36.0272 172.94 36.008C172.818 36.0028 172.696 36.0268 172.584 36.0782C172.472 36.1296 172.374 36.2068 172.295 36.3041C171.759 36.9346 171.552 37.0608 171.047 37.6156C170.176 38.3848 167.85 40.0935 167.497 40.3079C167.539 38.6928 167.678 37.0821 167.911 35.4846C168.057 34.0912 168.325 32.9248 168.471 31.7016C168.617 30.4784 168.8 29.293 168.898 28.5491C169.141 26.5314 169.579 25.3963 169.603 24.7091V24.6463C169.603 24.6463 169.603 22.8933 167.016 21.9475C165.539 21.3852 163.94 21.2652 162.401 21.6009C160.977 21.9921 159.673 22.7538 158.614 23.8138C157.446 24.8977 156.479 26.1924 155.758 27.6347L153.378 32.9626C152.385 35.9638 148.507 39.4945 148.263 39.7467L148.221 39.7845C147.758 40.1439 146.899 40.7619 146.51 41.0015C146.717 38.7443 146.972 36.821 147.118 35.415C147.265 34.009 147.581 33.076 147.727 31.5754C147.849 30.3963 147.995 29.4757 148.075 28.675C148.288 26.6069 148.683 25.3272 148.58 24.6589C148.58 24.6589 148.58 22.9059 145.998 21.9602C144.543 21.4088 142.97 21.2823 141.45 21.5944C139.991 21.9728 138.653 22.7426 137.572 23.8264C136.402 24.9101 135.432 26.2048 134.71 27.6473C133.842 29.4397 133.109 31.2988 132.518 33.2083C132.264 33.9931 132.096 34.8056 132.019 35.6296C131.641 35.9196 131.264 36.2097 130.856 36.4808C130.336 36.8213 129.831 37.1239 129.34 37.3887C128.889 37.6355 128.421 37.8462 127.939 38.0192C127.583 38.1611 127.207 38.2419 126.825 38.2588C126.48 38.2326 126.147 38.1223 125.851 37.937C125.708 37.7717 125.611 37.5691 125.571 37.3509C125.505 37.0592 125.468 36.7612 125.461 36.4618C125.461 36.1213 125.461 35.7493 125.461 35.3458C125.478 34.9406 125.529 34.5376 125.613 34.1414C125.711 33.5865 125.827 32.9437 125.961 32.2123C126.094 31.4746 126.259 30.5414 126.46 29.4191C126.661 28.2968 126.837 27.3322 126.977 26.5378C127.11 25.8134 127.194 25.0802 127.227 24.3436C127.251 23.6753 127.264 23.1457 127.264 22.7548C127.259 22.5472 127.199 22.3449 127.092 22.1695C126.985 21.9941 126.834 21.852 126.655 21.7585C126.298 21.5095 125.862 21.4104 125.437 21.4811C124.876 21.47 124.319 21.5928 123.811 21.8404C123.618 21.9096 123.444 22.0252 123.302 22.1775C123.16 22.3298 123.055 22.5146 122.995 22.7169L120.56 34.3874C120.463 34.9365 120.293 35.4692 120.054 35.9701C119.861 36.3952 119.6 36.7831 119.281 37.1175C119.026 37.4172 118.721 37.667 118.38 37.8552C118.047 38.0343 117.696 38.174 117.333 38.2714C116.902 38.3554 116.461 38.3809 116.024 38.3471C115.749 38.3715 115.475 38.2882 115.257 38.1138C115.091 37.9599 114.957 37.7733 114.861 37.5651C114.761 37.3664 114.687 37.1543 114.642 36.9346C114.593 36.6814 114.568 36.4239 114.569 36.1656C114.569 36.1656 114.605 35.9323 114.678 35.5351C114.751 35.1379 114.843 34.5765 114.958 33.9019C115.074 33.2272 115.233 32.3382 115.421 31.2222L115.951 28.1895C116.11 27.2752 116.268 26.3737 116.42 25.4784C116.572 24.5831 116.718 23.6498 116.846 22.6726C116.839 22.5101 116.79 22.3525 116.706 22.2154C116.621 22.0782 116.504 21.9665 116.365 21.8909C115.871 21.6378 115.326 21.5104 114.776 21.519C114.326 21.4578 113.869 21.5096 113.443 21.6702C113.067 21.9986 112.758 22.4016 112.535 22.8554C112.535 22.8554 111.859 23.713 109.85 33.9524C109.848 33.9754 109.848 33.9986 109.85 34.0216C109.85 34.0216 109.85 34.0597 109.85 34.0786C109.814 34.2803 109.783 34.4631 109.759 34.6334C109.668 35.1378 109.588 35.7053 109.399 35.8503C108.727 36.3821 108.005 36.8424 107.244 37.2246C106.592 37.5702 105.876 37.7679 105.144 37.8047C104.722 37.8338 104.301 37.7423 103.926 37.5399C103.588 37.3526 103.295 37.09 103.068 36.7709C102.834 36.4306 102.649 36.0566 102.519 35.661C102.379 35.2498 102.269 34.8283 102.191 34.4C102.111 33.965 102.056 33.5363 102.02 33.1076C101.983 32.6788 101.971 32.3005 101.959 31.9537C101.93 30.8157 101.962 29.6768 102.057 28.5426C102.15 27.3404 102.272 26.1109 102.422 24.8541C102.574 23.5931 102.744 22.3323 102.933 21.0082C103.122 19.6842 103.299 18.423 103.451 17.1935C103.603 15.964 103.725 14.7977 103.823 13.6943C103.915 12.699 103.949 11.699 103.926 10.6994C103.904 9.99179 103.802 9.28909 103.622 8.60596C103.447 7.91886 103.163 7.26703 102.781 6.67689C102.408 6.1067 101.923 5.62509 101.356 5.26441C100.736 4.89468 100.026 4.71957 99.311 4.76013C97.7037 4.81445 96.1525 5.38505 94.8724 6.39304C93.9779 7.0831 93.1715 7.88808 92.4732 8.78884C91.5388 9.9615 90.7056 11.2169 89.9831 12.5405C89.0107 14.3762 88.1466 16.2711 87.3954 18.215C86.5247 20.4281 86.1777 22.0421 85.1609 24.9298L85.3619 23.1581C85.3619 23.1581 85.5142 22.1367 86.0439 18.6753C86.4632 16.3654 86.7113 14.0256 86.7865 11.6766C86.7718 10.7853 86.6576 9.89884 86.4458 9.03482C86.2661 8.30268 85.9403 7.61761 85.4897 7.02355C85.0423 6.46476 84.4666 6.03118 83.8154 5.76254C83.0159 5.44748 82.1607 5.31216 81.3068 5.36539C80.6114 5.39357 79.9313 5.58312 79.3161 5.92016C78.5661 6.33256 77.8985 6.88894 77.3492 7.55954C76.615 8.43977 76.0004 9.4199 75.5226 10.4725C74.8858 11.815 74.3918 13.225 74.0492 14.678C74.0124 14.8028 73.9918 14.932 73.9883 15.0625C74.0043 15.2641 74.0669 15.4586 74.1708 15.6299C74.2934 15.8431 74.4407 16.0401 74.6093 16.2163C74.7738 16.396 74.9601 16.5527 75.1635 16.6828C75.331 16.7996 75.5276 16.8632 75.7295 16.8656C75.9451 16.8804 76.1593 16.8205 76.3384 16.6954C76.5143 16.565 76.648 16.3826 76.7219 16.172C77.0478 15.3748 77.4264 14.6017 77.8546 13.8581C78.2228 13.2025 78.6295 12.5708 79.0723 11.9666C79.425 11.4946 79.8342 11.0708 80.29 10.7056C80.5689 10.4457 80.9166 10.2789 81.2884 10.2266C81.3773 10.2186 81.4668 10.2327 81.5494 10.2678C81.632 10.3029 81.7055 10.3578 81.7634 10.4282C81.8752 10.5745 81.9541 10.7446 81.9947 10.9263C82.0446 11.1326 82.0711 11.3442 82.0738 11.5568V12.0928C82.0373 13.6313 81.9825 15.075 81.9216 16.4306C81.8607 17.7862 81.7271 19.1921 81.5506 20.4279L81.1849 23.0574C81.0022 24.4508 80.777 25.9262 80.497 27.4709C80.2697 28.7571 80.0285 30.1106 79.7728 31.5313C79.517 32.9521 79.2446 34.4988 78.9564 36.1718C78.8595 36.6676 78.7886 37.1685 78.7435 37.6723C78.6996 38.2175 78.6876 38.765 78.7072 39.3117C78.7157 39.8366 78.8078 40.3565 78.9808 40.85C79.1251 41.2679 79.3487 41.6516 79.6384 41.9787C79.8974 42.2715 80.2156 42.5017 80.5701 42.6532C80.9057 42.7972 81.2665 42.8681 81.6297 42.8613C82.2301 42.8495 82.8146 42.6616 83.3159 42.3192C83.8892 41.8893 84.3377 41.3047 84.6127 40.6293C85.0186 39.1455 85.4696 37.5693 85.9648 35.9005C86.4458 34.2297 86.9451 32.5276 87.4626 30.8063C87.9801 29.085 88.5157 27.3635 89.0698 25.6548C89.6238 23.9462 90.196 22.3133 90.7745 20.7623C91.3529 19.2112 91.9314 17.761 92.522 16.418C93.0367 15.212 93.6287 14.0431 94.2938 12.9188C94.7817 12.0701 95.3707 11.2885 96.0473 10.5923C96.4866 10.0889 97.0934 9.77584 97.746 9.71581C97.9 9.70555 98.0539 9.73416 98.1949 9.79893C98.336 9.86371 98.4599 9.96264 98.5559 10.0877C98.7651 10.3628 98.9202 10.6778 99.0125 11.0147C99.1136 11.3817 99.1827 11.7571 99.2194 12.1369C99.262 12.5278 99.2805 12.8432 99.2866 13.0764C99.3084 13.9674 99.2474 14.8582 99.1041 15.737C98.9519 16.6638 98.7687 17.6285 98.5434 18.5995C98.3181 19.5705 98.0689 20.5795 97.7888 21.5883C97.5088 22.5971 97.2529 23.6186 97.0337 24.6715C96.8145 25.7245 96.6257 26.7897 96.4796 27.8742C96.3389 28.9733 96.2842 30.0826 96.3154 31.1908C96.341 32.0703 96.41 32.9478 96.5224 33.82C96.6358 34.7217 96.8148 35.6133 97.0581 36.487C97.289 37.3407 97.6012 38.1686 97.9898 38.9585C98.3548 39.7028 98.8269 40.3852 99.3901 40.9824C99.9447 41.5595 100.605 42.0163 101.332 42.3256C102.148 42.6629 103.025 42.8133 103.902 42.7668C104.672 42.7389 105.436 42.6184 106.179 42.4075C106.963 42.1823 107.727 41.887 108.462 41.5249C108.687 41.4177 109.302 41.1213 109.826 40.8565C109.966 41.2579 110.172 41.6311 110.435 41.9599C110.72 42.3175 111.088 42.5933 111.506 42.7606C111.872 42.9377 112.262 43.0546 112.663 43.1073C113.303 43.1756 113.948 43.1756 114.587 43.1073C115.185 43.0111 115.771 42.8483 116.335 42.6218C116.955 42.3731 117.544 42.047 118.088 41.6508C118.694 41.2139 119.264 40.7268 119.793 40.1943C120.36 39.614 120.891 38.9971 121.382 38.3471C121.505 38.9501 121.665 39.5439 121.863 40.125C122.024 40.6143 122.251 41.0773 122.539 41.4996C122.789 41.8679 123.116 42.1737 123.495 42.3949C123.905 42.6196 124.365 42.7302 124.828 42.7163C125.389 42.7097 125.947 42.6336 126.49 42.4894C127.111 42.3342 127.721 42.1362 128.317 41.8968C128.926 41.6446 129.571 41.3545 130.186 41.0329C130.801 40.7114 131.404 40.3647 131.94 40.0053C132.195 39.8413 132.402 39.6772 132.634 39.5133C133.098 40.4901 133.791 41.3313 134.649 41.9599C135.518 42.6203 136.567 42.9759 137.645 42.9749C139.118 42.9749 140.634 42.2121 142.193 40.6863L141.779 43.2588C140.902 44.049 140.147 44.7865 139.514 45.4717C138.88 46.1568 138.069 47.0689 137.078 48.208C136.576 48.7908 136.113 49.4081 135.69 50.0555C135.234 50.7364 134.911 51.2661 134.71 51.6444L133.614 53.6304C132.752 55.0763 132.328 56.7561 132.396 58.4537C132.447 59.1927 132.641 59.9136 132.968 60.5724C133.249 61.1447 133.669 61.6313 134.186 61.9846C134.699 62.3249 135.26 62.5821 135.849 62.7475C136.489 62.9168 137.148 62.9995 137.809 62.9934C138.64 63.0042 139.465 62.8568 140.244 62.5584C140.935 62.3 141.578 61.9202 142.144 61.436C142.698 60.9452 143.179 60.3739 143.575 59.7399C143.98 59.1057 144.325 58.4321 144.604 57.7287C144.886 57.0129 145.12 56.2778 145.304 55.5284C145.487 54.8213 145.627 54.1032 145.724 53.3782C145.803 52.7477 145.883 52.1173 145.962 51.4427C145.998 51.1527 146.047 50.7365 146.114 50.1817C146.285 48.3238 146.439 47.0628 146.577 46.3987C146.609 46.1229 146.694 45.8566 146.826 45.6152C146.959 45.3738 147.137 45.1622 147.35 44.9927C147.959 44.5765 148.567 43.8638 149.913 42.9685L150.206 42.7733C151.06 42.049 151.873 41.2742 152.641 40.4529C153 40.0746 153.305 39.7151 153.579 39.3683C153.579 39.3683 153.579 39.4127 153.579 39.4379C154.042 40.4487 154.751 41.3177 155.637 41.9599C156.504 42.6223 157.554 42.9781 158.632 42.9749C160.106 42.9749 161.621 42.2121 163.18 40.6863L162.766 43.2588C161.89 44.049 161.135 44.7865 160.501 45.4717C159.868 46.1568 159.056 47.0689 158.066 48.208C157.564 48.7908 157.1 49.4081 156.678 50.0555C156.223 50.7364 155.894 51.2661 155.691 51.6444C155.488 52.0227 155.123 52.6846 154.595 53.6304C153.736 55.0773 153.312 56.7564 153.378 58.4537C153.425 59.1932 153.62 59.9147 153.95 60.5724C154.23 61.1447 154.65 61.6313 155.167 61.9846C155.68 62.3272 156.241 62.5846 156.83 62.7475C157.47 62.9171 158.129 62.9998 158.79 62.9934C159.621 63.0042 160.446 62.8568 161.226 62.5584C161.916 62.3 162.559 61.9202 163.125 61.436C163.679 60.9452 164.161 60.3739 164.557 59.7399C164.962 59.1057 165.306 58.4321 165.585 57.7287C165.868 57.0129 166.102 56.2778 166.286 55.5284C166.468 54.8213 166.608 54.1032 166.705 53.3782C166.785 52.7477 166.864 52.1173 166.943 51.4427C166.98 51.1527 167.029 50.7365 167.095 50.1817C167.266 48.3238 167.42 47.0628 167.558 46.3987C167.659 45.8024 167.931 45.2511 168.338 44.8159C168.916 44.2737 169.372 44.0278 170.541 42.9244C173.482 40.1439 174.158 39.1414 174.158 39.1414C174.499 38.6559 174.462 38.5866 174.474 38.5109C174.564 38.2411 174.612 37.9578 174.615 37.6723ZM141.736 49.8726C141.651 50.6103 141.578 51.222 141.517 51.7201C141.463 52.1874 141.372 52.6493 141.243 53.1009C141.036 53.8764 140.853 54.5006 140.701 54.9924C140.549 55.4842 140.378 55.938 140.19 56.4298C140.05 56.8223 139.87 57.1987 139.654 57.5523C139.481 57.8191 139.276 58.0626 139.045 58.2773C138.844 58.489 138.598 58.6487 138.327 58.7437C138.039 58.8367 137.739 58.8817 137.438 58.8764C136.508 58.8764 136.273 58.1911 136.732 56.8208C137.312 55.1236 138.068 53.4959 138.984 51.9658C139.718 50.6238 140.701 49.4453 141.877 48.498L141.736 49.8726ZM144.44 26.588L144.379 26.9728L143.77 30.8377C143.544 32.1492 142.985 34.4631 142.613 35.7494C142.144 37.3761 140.025 38.8326 139.075 38.8326C138.796 38.824 138.525 38.7342 138.292 38.5737C138.06 38.4132 137.875 38.1881 137.76 37.9244C137.249 36.985 137.121 35.6043 137.389 33.7695C137.68 31.7433 138.324 29.7887 139.289 28.0004C140.915 25.1064 142.491 25.2074 143.928 25.302C144.482 25.3335 144.482 26.1088 144.427 26.588H144.44ZM162.772 49.8726C162.687 50.6103 162.614 51.222 162.553 51.7201C162.499 52.1874 162.408 52.6493 162.279 53.1009C162.066 53.8764 161.889 54.5006 161.737 54.9924C161.585 55.4842 161.408 55.938 161.226 56.4298C161.086 56.8223 160.906 57.1987 160.69 57.5523C160.517 57.8191 160.312 58.0626 160.081 58.2773C159.88 58.489 159.634 58.6487 159.363 58.7437C159.075 58.8367 158.775 58.8817 158.474 58.8764C157.54 58.8764 157.305 58.1911 157.768 56.8208C158.346 55.1225 159.101 53.4945 160.02 51.9658C160.754 50.6238 161.737 49.4453 162.913 48.498L162.772 49.8726ZM165.348 26.4116L164.362 31.5692C164.132 33.0273 163.794 34.4647 163.351 35.8691C162.742 37.4391 161.055 38.8326 160.105 38.8326C159.826 38.824 159.555 38.7342 159.322 38.5737C159.09 38.4132 158.905 38.1881 158.79 37.9244C158.279 36.985 158.181 35.6043 158.413 33.7695C158.68 32.1965 159.205 30.6824 159.966 29.2929C161.792 25.5603 162.218 24.7911 164.769 25.4532C164.962 25.5108 165.127 25.6412 165.232 25.8186C165.337 25.996 165.374 26.2074 165.335 26.4116H165.348Z" fill="#1E4A7D"/>
<path d="M179.213 21.9224H181.119V24.4444C181.614 23.5146 182.348 22.7454 183.241 22.2223C184.133 21.6991 185.148 21.4426 186.173 21.4812C189.984 21.4812 191.22 24.0978 191.604 25.1319C192.103 23.9969 192.919 23.0425 193.946 22.3919C194.974 21.7413 196.166 21.4243 197.369 21.4812C198.171 21.4399 198.971 21.5673 199.724 21.8556C200.476 22.1438 201.164 22.5868 201.747 23.1582C203.318 24.7849 203.415 27.0105 203.415 28.6372V42.0545H201.509V28.6372C201.509 27.3068 201.418 25.6236 200.365 24.4887C199.982 24.1035 199.526 23.8043 199.026 23.6101C198.527 23.4159 197.993 23.3308 197.46 23.3601C192.315 23.3601 192.267 28.6878 192.267 29.9173V42.0545H190.361V29.1292C190.361 27.8682 190.27 23.3601 186.099 23.3601C182.714 23.3601 181.143 26.4179 181.143 30.409V42.0545H179.237L179.213 21.9224Z" fill="#1E4A7D"/>
<path d="M226.095 6.08398H228.001V42.0227H226.095V38.4226C225.278 39.7135 224.159 40.77 222.843 41.4941C221.526 42.2182 220.054 42.5867 218.563 42.5652C213.656 42.5652 209.041 38.9146 209.041 31.8466C209.041 24.4949 213.851 21.4368 218.563 21.4368C220.037 21.3894 221.499 21.7259 222.815 22.4155C224.131 23.1051 225.259 24.1258 226.095 25.3839V6.08398ZM211.038 31.834C211.038 37.7103 214.752 40.7177 218.661 40.7177C222.57 40.7177 226.187 37.7103 226.187 31.834C226.187 27.1493 223.379 23.3536 218.563 23.3536C214.563 23.3536 211.038 26.2099 211.038 31.834Z" fill="#1E4A7D"/>
</g>
<defs>
<clipPath id="clip0_192_12760">
<rect width="228" height="63" fill="white"/>
</clipPath>
</defs>
</svg>
